# File created by Blade
# Date/Time:  Tue Jan 27 17:16:27 2015
# Frame Rate: 120.000 fps
#------------------------------------------------------
:FULLY-SPECIFIED
:DEGREES
3771
root 5.021911 36.961411 1.455380 7.101759 14.639103 -0.070469
Spine -1.342153 4.452841 -9.550657
Head -4.585223 -10.060018 5.560644
LeftShoulder -3.680398 -6.811480 14.334366
LeftArm -18.610507 -38.905003 -31.649605
LeftForeArm 7.504605 0.000000 82.484965
LeftHand -19.589927 -0.000000 43.003981
LeftHandThumb1 -26.253704 0.000000 33.147579
RightShoulder -10.291118 -26.012649 -0.807741
RightArm 13.196106 -38.519303 47.926345
RightForeArm -139.215841 -0.000000 49.331714
RightHand 7.604826 -0.000000 -11.141034
RightHandThumb1 -24.326973 -0.000000 -32.862282
LeftUpLeg -7.468860 11.019239 -4.415474
LeftLeg 10.006154 -0.000000 -0.000000
LeftFoot -18.804167 3.044288 -14.373503
LeftToeBase 14.999198 -0.000000 -0.000000
RightUpLeg -13.966208 -17.132030 -2.114693
RightLeg 29.364173 -0.000000 -0.000000
RightFoot -17.395565 -16.756715 12.397637
RightToeBase -2.339300 -0.000000 0.000000
3772
root 5.011634 36.968041 1.443824 7.135751 14.623685 -0.105774
Spine -1.397435 4.383082 -9.580165
Head -4.721766 -10.231564 5.641838
LeftShoulder -3.650604 -6.850141 14.431035
LeftArm -18.500750 -38.827250 -31.529581
LeftForeArm 7.938192 -0.000000 82.029188
LeftHand -19.959776 -0.000000 42.874437
LeftHandThumb1 -26.253704 0.000000 33.147579
RightShoulder -10.285633 -25.806409 -0.947105
RightArm 12.877648 -37.982783 47.878994
RightForeArm -140.682942 -0.000000 48.639672
RightHand 7.280761 -0.000000 -10.795100
RightHandThumb1 -24.326973 -0.000000 -32.862282
LeftUpLeg -7.529109 11.087393 -4.382083
LeftLeg 10.009505 -0.000000 -0.000000
LeftFoot -18.692791 3.000618 -14.226420
LeftToeBase 14.723234 -0.000000 -0.000000
RightUpLeg -13.966427 -17.029067 -2.108307
RightLeg 29.285372 -0.000000 -0.000000
RightFoot -17.314184 -16.353686 12.345689
RightToeBase -2.217848 -0.000000 0.000000
3773
root 4.998841 36.975172 1.433039 7.159863 14.614276 -0.161965
Spine -1.437961 4.316148 -9.589346
Head -4.888896 -10.384400 5.742202
LeftShoulder -3.622888 -6.899641 14.529330
LeftArm -18.381229 -38.739254 -31.417634
LeftForeArm 8.471309 -0.000000 81.583967
LeftHand -20.383582 0.000000 42.818385
LeftHandThumb1 -26.253704 0.000000 33.147579
RightShoulder -10.269482 -25.601737 -1.074474
RightArm 12.510383 -37.368567 47.840155
RightForeArm -142.274667 0.000000 47.913398
RightHand 6.962303 -0.000000 -10.458316
RightHandThumb1 -24.326973 -0.000000 -32.862282
LeftUpLeg -7.578489 11.154335 -4.315419
LeftLeg 9.986438 -0.000000 -0.000000
LeftFoot -18.725795 2.841208 -14.553175
LeftToeBase 15.089015 -0.000000 -0.000000
RightUpLeg -13.938462 -16.972455 -2.099508
RightLeg 29.166712 -0.000000 -0.000000
RightFoot -17.211495 -15.725256 12.302181
RightToeBase -2.262807 -0.000000 0.000000
3774
root 4.982454 36.980643 1.420099 7.184273 14.598301 -0.234019
Spine -1.464078 4.257068 -9.589301
Head -5.098047 -10.500791 5.858625
LeftShoulder -3.589101 -6.992049 14.647359
LeftArm -18.335874 -38.604977 -31.270118
LeftForeArm 8.969749 -0.000000 81.185853
LeftHand -20.777359 0.000000 42.580161
LeftHandThumb1 -26.253704 0.000000 33.147579
RightShoulder -10.270440 -25.363950 -1.226687
RightArm 12.164932 -36.722875 47.804137
RightForeArm -144.006318 -0.000000 47.113758
RightHand 6.664640 0.000000 -10.115505
RightHandThumb1 -24.326973 -0.000000 -32.862282
LeftUpLeg -7.740409 11.614525 -4.262369
LeftLeg 10.177749 -0.000000 -0.000000
LeftFoot -18.683014 2.409871 -14.494568
LeftToeBase 15.112012 -0.000000 -0.000000
RightUpLeg -13.944411 -16.930312 -2.090837
RightLeg 29.112323 -0.000000 -0.000000
RightFoot -17.099478 -15.061977 12.360478
RightToeBase -2.331184 -0.000000 0.000000
3775
root 4.970536 36.986662 1.405720 7.250998 14.569254 -0.301524
Spine -1.554651 4.207751 -9.576302
Head -5.276114 -10.649316 5.942293
LeftShoulder -3.557049 -7.062654 14.743049
LeftArm -18.256077 -38.410737 -31.129725
LeftForeArm 9.451542 0.000000 80.755365
LeftHand -21.224381 -0.000000 42.750639
LeftHandThumb1 -26.253704 0.000000 33.147579
RightShoulder -10.262892 -25.183234 -1.371950
RightArm 11.789977 -35.900386 47.780769
RightForeArm -146.014891 -0.000000 46.296066
RightHand 6.385420 -0.000000 -10.018031
RightHandThumb1 -24.326973 -0.000000 -32.862282
LeftUpLeg -7.864109 11.798367 -4.210928
LeftLeg 10.205942 -0.000000 -0.000000
LeftFoot -18.648596 2.227037 -14.526666
LeftToeBase 15.178503 -0.000000 -0.000000
RightUpLeg -14.005366 -16.852635 -2.103298
RightLeg 29.089259 -0.000000 -0.000000
RightFoot -16.997196 -14.337389 12.551289
RightToeBase -2.486250 -0.000000 0.000000
3776
root 4.960323 36.991549 1.389483 7.314721 14.531507 -0.351520
Spine -1.616195 4.159257 -9.569965
Head -5.492596 -10.738896 6.007942
LeftShoulder -3.528939 -7.171073 14.826152
LeftArm -18.230150 -38.213898 -30.937101
LeftForeArm 9.923063 0.000000 80.360410
LeftHand -21.646364 -0.000000 42.234624
LeftHandThumb1 -26.253704 0.000000 33.147579
RightShoulder -10.265728 -25.035482 -1.512540
RightArm 11.444337 -34.928129 47.727060
RightForeArm -148.156718 0.000000 45.490026
RightHand 6.164046 0.000000 -9.669160
RightHandThumb1 -24.326973 -0.000000 -32.862282
LeftUpLeg -7.931848 11.791536 -4.166384
LeftLeg 10.134735 -0.000000 -0.000000
LeftFoot -18.633726 2.239396 -14.570814
LeftToeBase 15.252471 -0.000000 -0.000000
RightUpLeg -14.072195 -16.850061 -2.152867
RightLeg 29.089724 -0.000000 -0.000000
RightFoot -16.937125 -13.505286 12.698405
RightToeBase -2.446721 -0.000000 0.000000
3777
root 4.950993 36.995218 1.370804 7.362884 14.457702 -0.364504
Spine -1.633202 4.129015 -9.615267
Head -5.738694 -10.752765 6.093817
LeftShoulder -3.519852 -7.249140 14.951192
LeftArm -18.143287 -38.032553 -30.795313
LeftForeArm 10.396733 -0.000000 79.925661
LeftHand -22.067936 -0.000000 41.987950
LeftHandThumb1 -26.253704 0.000000 33.147579
RightShoulder -10.251647 -24.843913 -1.678748
RightArm 11.040652 -33.816745 47.775272
RightForeArm -150.459835 -0.000000 44.644212
RightHand 5.944637 -0.000000 -9.323627
RightHandThumb1 -24.326973 -0.000000 -32.862282
LeftUpLeg -7.946239 11.697353 -4.150013
LeftLeg 10.003165 -0.000000 -0.000000
LeftFoot -18.614233 2.346742 -14.694364
LeftToeBase 15.310227 -0.000000 -0.000000
RightUpLeg -14.140388 -16.776377 -2.276909
RightLeg 29.154060 -0.000000 -0.000000
RightFoot -16.907981 -12.601216 12.912644
RightToeBase -2.466488 -0.000000 0.000000
3778
root 4.943975 36.999323 1.353597 7.405196 14.389649 -0.388258
Spine -1.645302 4.080508 -9.623755
Head -5.989427 -10.781148 6.137077
LeftShoulder -3.525520 -7.346968 15.055874
LeftArm -18.118647 -37.846957 -30.612819
LeftForeArm 10.742614 -0.000000 79.516078
LeftHand -22.255270 -0.000000 41.352153
LeftHandThumb1 -26.253704 0.000000 33.147579
RightShoulder -10.220001 -24.636666 -1.850657
RightArm 10.642828 -32.615237 47.772049
RightForeArm -152.662608 0.000000 43.811541
RightHand 5.963910 -0.000000 -9.439791
RightHandThumb1 -24.326973 -0.000000 -32.862282
LeftUpLeg -8.008036 11.800579 -4.142742
LeftLeg 9.975188 -0.000000 -0.000000
LeftFoot -18.580141 2.290524 -14.726606
LeftToeBase 15.343119 -0.000000 -0.000000
RightUpLeg -14.196866 -16.779734 -2.414315
RightLeg 29.199025 -0.000000 -0.000000
RightFoot -16.858989 -11.521985 13.185405
RightToeBase -2.401969 -0.000000 0.000000
3779
root 4.933259 37.004301 1.331240 7.452482 14.285526 -0.424276
Spine -1.647060 4.052022 -9.624215
Head -6.282129 -10.789755 6.186515
LeftShoulder -3.542849 -7.425547 15.162827
LeftArm -18.041190 -37.676199 -30.442589
LeftForeArm 10.930991 -0.000000 79.080413
LeftHand -22.596443 -0.000000 41.228082
LeftHandThumb1 -26.253704 0.000000 33.147579
RightShoulder -10.183095 -24.353587 -2.036947
RightArm 10.195705 -31.360291 47.806411
RightForeArm -154.949526 0.000000 42.905001
RightHand 5.791523 -0.000000 -9.284533
RightHandThumb1 -24.326973 -0.000000 -32.862282
LeftUpLeg -8.067103 11.841703 -4.118652
LeftLeg 9.908369 -0.000000 -0.000000
LeftFoot -18.547132 2.305767 -14.803497
LeftToeBase 15.341270 -0.000000 -0.000000
RightUpLeg -14.281006 -16.721781 -2.554798
RightLeg 29.282981 -0.000000 -0.000000
RightFoot -16.844653 -10.431717 13.489024
RightToeBase -2.225753 -0.000000 0.000000
3780
root 4.925406 37.008742 1.311228 7.514902 14.172607 -0.450455
Spine -1.683986 4.022969 -9.621340
Head -6.534311 -10.721505 6.195089
LeftShoulder -3.561983 -7.471430 15.265759
LeftArm -17.974524 -37.507013 -30.281252
LeftForeArm 11.311584 0.000000 78.651476
LeftHand -22.899107 -0.000000 40.263093
LeftHandThumb1 -26.253704 0.000000 33.147579
RightShoulder -10.145880 -24.077334 -2.229455
RightArm 9.749106 -30.100964 47.808315
RightForeArm -156.931052 -0.000000 41.884499
RightHand 5.279238 -0.000000 -8.951723
RightHandThumb1 -24.326973 -0.000000 -32.862282
LeftUpLeg -8.125365 11.875827 -4.109536
LeftLeg 9.825345 -0.000000 -0.000000
LeftFoot -18.504047 2.333118 -14.910202
LeftToeBase 15.345107 -0.000000 -0.000000
RightUpLeg -14.382325 -16.681732 -2.727238
RightLeg 29.380129 -0.000000 -0.000000
RightFoot -16.833770 -9.207305 13.738223
RightToeBase -1.928263 -0.000000 0.000000
3781
root 4.916029 37.012179 1.290489 7.572637 14.055333 -0.481706
Spine -1.719315 3.994033 -9.609284
Head -6.750167 -10.647458 6.193287
LeftShoulder -3.572636 -7.513689 15.354987
LeftArm -17.868968 -37.283824 -30.097456
LeftForeArm 11.739758 -0.000000 78.148351
LeftHand -23.108305 -0.000000 39.877714
LeftHandThumb1 -26.253704 0.000000 33.147579
RightShoulder -10.094069 -23.815677 -2.423991
RightArm 9.320412 -28.786013 47.753948
RightForeArm -159.030354 0.000000 40.893617
RightHand 4.902470 -0.000000 -8.730950
RightHandThumb1 -24.326973 -0.000000 -32.862282
LeftUpLeg -8.181281 11.887338 -4.093032
LeftLeg 9.746103 -0.000000 -0.000000
LeftFoot -18.500633 2.376372 -15.031263
LeftToeBase 15.444222 -0.000000 -0.000000
RightUpLeg -14.474608 -16.632232 -2.916877
RightLeg 29.471730 -0.000000 -0.000000
RightFoot -16.843254 -7.862629 13.970230
RightToeBase -1.508991 -0.000000 0.000000
3782
root 4.908307 37.015832 1.268499 7.631167 13.925997 -0.506992
Spine -1.756223 4.033872 -9.590602
Head -6.982198 -10.633951 6.181205
LeftShoulder -3.511276 -7.581813 15.439403
LeftArm -17.796607 -37.025535 -29.917902
LeftForeArm 12.225949 -0.000000 77.642998
LeftHand -23.356751 -0.000000 39.583890
LeftHandThumb1 -26.253704 0.000000 33.147579
RightShoulder -10.099034 -23.535266 -2.617575
RightArm 8.889784 -27.452015 47.693723
RightForeArm -160.645648 -0.000000 39.898110
RightHand 4.863133 -0.000000 -8.260209
RightHandThumb1 -24.326973 -0.000000 -32.862282
LeftUpLeg -8.251884 11.963074 -4.093116
LeftLeg 9.688736 -0.000000 -0.000000
LeftFoot -18.488953 2.386125 -15.103494
LeftToeBase 15.510929 -0.000000 -0.000000
RightUpLeg -14.568002 -16.567559 -3.134990
RightLeg 29.547773 -0.000000 -0.000000
RightFoot -16.804280 -6.499550 13.942215
RightToeBase -0.916600 -0.000000 0.000000
